<svg xmlns="http://www.w3.org/2000/svg" viewBox="0 0 1000.6 119.72"><defs><style>.cls-1,.cls-2{fill:#fff;}.cls-1{fill-rule:evenodd;}</style></defs><title>destacame_logo</title><g id="Capa_2" data-name="Capa 2"><g id="Capa_1-2" data-name="Capa 1"><path class="cls-1" d="M798.86,115.7c1.74-37.89,3.48-75.46,5.22-113.19h27.78c8.24,21.79,16.47,43.65,25,66.15,2.25-5.88,4.33-11.27,6.36-16.68,5.91-15.7,11.85-31.44,17.7-47.18.67-1.82,1.52-2.54,3.33-2.52,8.39.12,16.77.06,25.38.06,1.75,37.92,3.5,75.55,5.24,113.37H887.12q-1-27-1.94-54.18l-.44-.15q-2.86,7.35-5.71,14.71c-3,7.88-6.12,15.74-9.1,23.65-.6,1.59-1.35,2.2-2.92,2.17q-10.22-.15-20.42,0c-1.64,0-2.26-.71-2.86-2.27-4.4-11.49-8.9-22.94-13.36-34.39a7.75,7.75,0,0,0-1.9-3.12c-.63,17.81-1.27,35.61-1.9,53.56Z"/><path class="cls-1" d="M151,115.94V2.27c.92-.07,1.74-.19,2.56-.19,14.46,0,28.93-.18,43.38.09a68.27,68.27,0,0,1,16,2c14.28,3.73,22.44,14.77,22.94,31.6.46,15.4.72,30.87-.06,46.22-1,19.93-10.59,31.19-29,32.72s-37,.91-55.78,1.24m28.69-27.67c5.73,0,11.2.08,16.64,0,8.6-.16,11.74-3.72,11.78-13.41q.07-16.07,0-32.18a31.9,31.9,0,0,0-.43-4.74c-.63-4.37-3-7.52-6.78-7.78-7-.45-14.06-.12-21.2-.12Z"/><polygon class="cls-1" points="253.28 115.49 253.28 2.48 325.92 2.48 325.92 27.99 282.12 27.99 282.12 45.2 322.38 45.2 322.38 71.02 282.07 71.02 282.07 90.08 325.94 90.08 325.94 115.49 253.28 115.49"/><polygon class="cls-1" points="927.95 115.5 927.95 2.48 1000.58 2.48 1000.58 27.98 956.78 27.98 956.78 45.2 997.04 45.2 997.04 71.02 956.75 71.02 956.75 90.09 1000.6 90.09 1000.6 115.5 927.95 115.5"/><polygon class="cls-1" points="453.14 115.57 453.14 30.27 424.01 30.27 424.01 2.41 510.91 2.41 510.91 30.14 481.84 30.14 481.84 115.57 453.14 115.57"/><path class="cls-1" d="M345.06,86.36c5.25,1.18,10.27,2.8,15.37,3.34a200.51,200.51,0,0,0,23.4,1.11c4.21-.06,5.84-2.53,6.23-6.75.54-5.76-.55-8.69-4.86-10.05-5.61-1.79-11.42-2.73-17.09-4.28a83.46,83.46,0,0,1-12.45-4.12c-7.72-3.47-12.17-10-13.29-19.4-.94-7.84-1.3-15.7.26-23.46,2.2-11,8.82-17.15,18.16-20.05,9.9-3.06,20-3.09,30.11-2.17C398.31,1.2,405.66,2.8,413,4a25.37,25.37,0,0,1,3.07.91c-1.11,8.43-2.18,16.71-3.31,25.3-4.41-.78-8.63-1.86-12.89-2.19-8-.62-16-1.05-24-1-3.69,0-5.1,2-5.53,5.53-.63,5.26.36,8.74,3.71,9.92,5.11,1.8,10.42,2.84,15.61,4.34,5.55,1.6,11.18,3,16.58,5.13,6.91,2.67,11.45,8.28,11.84,16.62a146.57,146.57,0,0,1-.57,25.68c-1.63,12.45-9.54,19-19.94,21.35A89,89,0,0,1,343,111.13c-1.19-.47-2.63-.67-2.18-2.91,1.47-7.21,2.84-14.47,4.28-21.86"/><path class="cls-1" d="M534.25,2.22h35.34c10.66,37.57,21.36,75.27,32.19,113.41h-10c-4.91,0-9.84-.24-14.74.09-2.9.2-3.94-1.08-4.51-4-.75-3.82-1.74-7.59-2.84-11.31a2.92,2.92,0,0,0-2-1.82c-11-.11-21.92-.07-33-.07-1.46,5.7-2.89,11.28-4.33,16.94H502.29C513,77.6,523.6,40,534.25,2.22m17.89,27.06-.47.06q-5.26,21.9-10.55,43.93h21.8c-3.63-14.85-7.21-29.42-10.78-44"/><path class="cls-1" d="M722.87,2.22h35.34c10.66,37.57,21.35,75.27,32.19,113.42h-10c-4.91,0-9.85-.24-14.73.08-2.9.2-3.95-1.08-4.52-4-.75-3.82-1.74-7.59-2.84-11.31a2.91,2.91,0,0,0-2-1.82c-11-.11-21.92-.07-33-.07-1.46,5.7-2.89,11.28-4.34,16.94H690.92C701.61,77.6,712.24,40,722.87,2.22m17.9,27.06-.47.06Q735,51.25,729.75,73.28h21.79c-3.63-14.85-7.21-29.42-10.78-44"/><path class="cls-1" d="M684.35,3.94c-4.24-.75-8.13-1.55-12-2.13-13-1.88-26-2.92-38.87.38-15,3.85-23.9,15-24.19,31.15-.28,17.1-.38,34.24.06,51.34.37,13.88,6.42,24,18.24,29a45.44,45.44,0,0,0,8.4,2.66c11.08,2.36,22.21,1.68,33.3.32,4.95-.61,9.85-1.64,15.1-2.53-1-9.14-1.95-17.79-2.92-26.66-1.47.21-2.47.4-3.49.49-9.88.76-19.74,1.85-29.63,2.14C641.7,90.3,638.14,86.4,638,79c-.28-13.69-.18-27.42.06-41.12.1-5.43,2.79-8.88,7.59-9.52A77.17,77.17,0,0,1,660.87,28c6.77.44,13.49,1.49,20.56,2.31,1-8.61,1.9-17.2,2.92-26.4"/><path class="cls-2" d="M103.26,14.23c-21.91,14.29-37,33.47-49.77,54.62-2.44-6.09-4.14-12.2-7.32-18.42-3.06-6-10.92-3.54-10.59,2.47S41,76.46,45.25,82.13s13.38,5.56,16.87-.38c6.69-11.4,10.35-18.1,17.52-28.8C88.18,40.2,98.81,29.1,110,18.67,116.64,12.49,110.48,9.52,103.26,14.23Z"/><path class="cls-2" d="M109.86,40.79c-3.3-.78-7.1.91-9.74,3.46A46.48,46.48,0,1,1,74.35,19.48a15,15,0,0,0,4.3-9.73,57.12,57.12,0,1,0,31.21,31Z"/></g></g></svg>