<?xml version="1.0" encoding="utf-8"?>
<!-- Generator: Adobe Illustrator 19.2.1, SVG Export Plug-In . SVG Version: 6.00 Build 0)  -->
<svg version="1.1" id="Layer_1" xmlns="http://www.w3.org/2000/svg" xmlns:xlink="http://www.w3.org/1999/xlink" x="0px" y="0px"
	 viewBox="0 0 612 792" style="enable-background:new 0 0 612 792;" xml:space="preserve">
<style type="text/css">
	.st0{fill:#EC1E52;}
	.st1{fill:#342B7F;}
</style>
<g>
	<path id="path27278" class="st0" d="M158.3,340.6l68.8-19.6c0,0-0.7-4.6-3.2-6.8s-6.9-3.6-6.9-3.6l-95.6-34.7c0,0-3-1-5.3,0.2
		s-2.1,4.4-2.1,4.4v44.5c0,0-0.2,4.3,5.9,13.8c6.2,9.5,20.8,7.1,20.8,7.1L158.3,340.6z"/>
	<path id="path27260" class="st0" d="M432.1,233.4l64-35.8c0,0,1-6.2-1.5-8.4c-2.5-2.3-5.4-2.9-5.4-2.9L212.9,87.5c0,0-3-1-5.3,0.2
		s-2.1,4.4-2.1,4.4v38.3c0,0,0,8.9,6.1,18.4c6.2,9.5,16.2,12,16.2,12L432.1,233.4z"/>
	<path id="path27258" class="st0" d="M432.1,344.9l64-33.1c0,0,1.4-8.4-1.1-10.6c-2.5-2.3-5.8-3.4-5.8-3.4L121.4,164.1
		c0,0-3-1-5.3,0.2s-2.1,4.4-2.1,4.4V207c0,0,0,8.9,6.1,18.4c6.2,9.5,16.2,12,16.2,12L432.1,344.9z"/>
</g>
<g>
	<path id="path27194" class="st1" d="M489.2,186.1c0,0,3.7,0.6,6.9,3.6c3.2,3.1,3.2,6.8,3.2,6.8v50.8c0,0-0.2,6.9-3,13.2
		c-2.8,6.2-7,7.7-7,7.7l-8.7,3.1L204.5,371.7c0,0-1.3,0.4-3.1,0.4s-3.1-0.4-3.1-0.4l-76.9-27.9c0,0-1.9-0.4-4.6-4.7
		c-3-4.8-2.8-14.2-2.8-14.2s0.5,4.8,3.2,7.1s10-0.2,10-0.2l353.4-128.4c0,0,14-5.7,14-11.5C494.7,187.8,489.2,186.1,489.2,186.1
		L489.2,186.1z"/>
	<path id="path27140" class="st1" d="M489.2,297.7c0,0,3.7,0.6,6.9,3.6c3.2,3.1,3.2,6.8,3.2,6.8v50.8c0,0-0.2,6.9-3,13.2
		c-2.8,6.2-7,7.7-7,7.7l-8.7,3.1L204.5,483.3v-68L480.7,315c0,0,14-5.7,14-11.5C494.7,299.4,489.2,297.7,489.2,297.7L489.2,297.7z"
		/>
	<path id="path27142" class="st1" d="M352.1,476.3c2.6,2.6,2.6,8.5,2.6,8.5v38c0,0-0.2,6.9-3,13.2s-7,7.7-7,7.7l-8.7,3.1
		l-131.6,47.8v-68l131.6-47.8C336.1,478.8,349.5,473.7,352.1,476.3L352.1,476.3z"/>
	<path id="path27168" class="st1" d="M267.2,618.2c2.6,2.6,2.6,8.5,2.6,8.5v38c0,0-0.2,6.9-3,13.2s-7,7.7-7,7.7l-8.7,3.1l-46.7,17.8
		v-68l46.7-17.8C251.2,620.7,264.6,615.6,267.2,618.2L267.2,618.2z"/>
</g>
</svg>
